# xmcd
#
# Track frame offsets: 
#        150
#        13827
#        29527
#        50250
#        67345
#        85265
#        96710
#        114392
#
# Disc length: 1762 seconds
#
# Revision: 58
# Processed by: cddbd v1.5.2PL0 Copyright (c) Steve Scherf et al.
# Submitted via: ExactAudioCopyFreeDBPlugin 1.0
#
DISCID=6a06e008,6f06e008
DTITLE=Megadeth / Hidden Treasures
DYEAR=1995
DGENRE=Metal
TTITLE0=No More Mr Nice Guy (cover by Alice Cooper)
TTITLE1=Breakpoint
TTITLE2=Go To Hell
TTITLE3=Angry Again
TTITLE4=99 Ways To Die
TTITLE5=Paranoid (cover by Black Sabbath)
TTITLE6=Diadems
TTITLE7=Problems (cover by Sex Pistols)
EXTD=Max Norman & Dave Mustaine
EXTT0=Cooper, Bruce
EXTT1=Mustaine, Ellefson, Menza
EXTT2=Mustaine, Friedman, Ellefson, Menza
EXTT3=Dave Mustaine
EXTT4=Dave Mustaine
EXTT5=Osbourne, Iommi, Butler, Ward
EXTT6=Dave Mustaine
EXTT7=Rotten, Jones, Matlock, Cook
PLAYORDER=
.
